<svg width="14" height="14" viewBox="0 0 14 14" fill="none" xmlns="http://www.w3.org/2000/svg">
<path d="M12.3075 0.932463L6.99999 6.23994L1.69251 0.932463L1.6218 0.861752L1.55109 0.932463L0.932463 1.55109L0.861752 1.6218L0.932463 1.69251L6.23994 6.99999L0.932463 12.3075L0.861753 12.3782L0.932463 12.4489L1.55109 13.0675L1.6218 13.1382L1.69251 13.0675L6.99999 7.76003L12.3075 13.0675L12.3782 13.1382L12.4489 13.0675L13.0675 12.4489L13.1382 12.3782L13.0675 12.3075L7.76003 6.99999L13.0675 1.69251L13.1382 1.6218L13.0675 1.55109L12.4489 0.932463L12.3782 0.861753L12.3075 0.932463Z" fill="#4C4F57" stroke="#4C4F57" stroke-width="0.2"/>
</svg>
