<svg width="10" height="10" viewBox="0 0 10 10" fill="none" xmlns="http://www.w3.org/2000/svg">
<path d="M5.70866 4.94572L9.44426 8.68132L9.01457 9.11101L5.27897 5.37541L1.54337 9.11101L1.11368 8.68132L4.84928 4.94572L1.11368 1.21012L1.54337 0.78043L5.27897 4.51603L9.01457 0.78043L9.44426 1.21012L5.70866 4.94572Z" fill="#393D46" fill-opacity="0.85"/>
<path fill-rule="evenodd" clip-rule="evenodd" d="M4.84928 4.94572L1.11368 1.21012L1.54337 0.78043L5.27897 4.51603L9.01457 0.78043L9.44426 1.21012L5.70866 4.94572L9.44426 8.68132L9.01457 9.11101L5.27897 5.37541L1.54337 9.11101L1.11368 8.68132L4.84928 4.94572ZM5.27897 5.87678L1.54337 9.61239L0.612305 8.68132L4.34791 4.94572L0.612305 1.21012L1.54337 0.279053L5.27897 4.01466L9.01457 0.279053L9.94564 1.21012L6.21003 4.94572L9.94564 8.68132L9.01457 9.61239L5.27897 5.87678Z" fill="#393D46" fill-opacity="0.85"/>
</svg>
