<svg width="18" height="20" viewBox="0 0 18 20" fill="none" xmlns="http://www.w3.org/2000/svg">
<path d="M7.34995 6.29999H6.44995V16.2H7.34995V6.29999Z" fill="#4C4F57" stroke="#4C4F57" stroke-width="0.2"/>
<path d="M11.55 6.29999H10.65V16.2H11.55V6.29999Z" fill="#4C4F57" stroke="#4C4F57" stroke-width="0.2"/>
<path d="M17.1 3.15001H13.05V1.80001C13.05 1.08001 12.42 0.450012 11.7 0.450012H6.30002C5.58002 0.450012 4.95002 1.08001 4.95002 1.80001V3.15001H0.900024V4.05001H2.25002L3.06002 18.09C3.06002 18.81 3.69002 19.35 4.41002 19.35H13.5C14.22 19.35 14.85 18.81 14.85 18.09L15.66 4.05001H17.1V3.15001ZM5.85002 1.80001C5.85002 1.53001 6.03002 1.35001 6.30002 1.35001H11.7C11.97 1.35001 12.15 1.53001 12.15 1.80001V3.15001H5.85002V1.80001ZM14.04 18C14.04 18.27 13.86 18.45 13.59 18.45H4.41002C4.14002 18.45 3.96002 18.27 3.96002 18L3.15002 4.05001H14.76L14.04 18Z" fill="#4C4F57" stroke="#4C4F57" stroke-width="0.2"/>
</svg>
