<svg width="20" height="20" viewBox="0 0 20 20" fill="none" xmlns="http://www.w3.org/2000/svg">
<path d="M17.114 7.5036H18.2684V17.8932C18.2684 18.1994 18.1468 18.493 17.9303 18.7095C17.7138 18.926 17.4202 19.0476 17.114 19.0476H2.10679C1.80063 19.0476 1.507 18.926 1.29051 18.7095C1.07402 18.493 0.952393 18.1994 0.952393 17.8932V2.88599C0.952393 2.57983 1.07402 2.2862 1.29051 2.06971C1.507 1.85321 1.80063 1.73159 2.10679 1.73159H12.4964V2.88599H2.10679V17.8932H17.114V7.5036ZM19.4228 3.12495L8.75095 13.7951L5.35355 14.6447L6.20492 11.2491L16.875 0.57719C17.0915 0.360773 17.3851 0.239197 17.6912 0.239197C17.9973 0.239197 18.2909 0.360773 18.5074 0.57719L19.4228 1.49263C19.6392 1.70911 19.7608 2.00269 19.7608 2.30879C19.7608 2.6149 19.6392 2.90847 19.4228 3.12495ZM18.6066 2.30879L17.6912 1.39335L7.24388 11.8407L6.93912 13.0609L8.15932 12.7561L18.6066 2.30879Z" fill="#4C4F57" stroke="#4C4F57" stroke-width="0.2"/>
</svg>
