<svg width="15" height="11" viewBox="0 0 15 11" fill="none" xmlns="http://www.w3.org/2000/svg">
<path d="M0.9375 7.50417H0.8375V7.60417V8.4375V8.5375H0.9375H8.65946C8.67743 8.90199 8.73193 9.2965 8.90498 9.61036C9.00033 9.7833 9.13241 9.93326 9.3145 10.0394C9.49644 10.1454 9.72232 10.2042 10 10.2042C10.3299 10.2042 10.5862 10.1211 10.7823 9.9756C10.9776 9.83059 11.1045 9.62984 11.1874 9.40867C11.35 8.97452 11.35 8.43892 11.35 8.02968V8.02083V8.01198C11.35 7.60275 11.35 7.06715 11.1874 6.63299C11.1045 6.41182 10.9776 6.21108 10.7823 6.06607C10.5862 5.92054 10.3299 5.8375 10 5.8375C9.72232 5.8375 9.49644 5.89627 9.3145 6.0023C9.13241 6.10841 9.00033 6.25836 8.90498 6.4313C8.73193 6.74517 8.67743 7.13968 8.65946 7.50417H0.9375ZM12.0833 7.50417H11.9833V7.60417V8.4375V8.5375H12.0833H14.0625H14.1625V8.4375V7.60417V7.50417H14.0625H12.0833ZM14.1625 2.60417V2.50417H14.0625H6.66667H6.56667V2.60417V3.4375V3.5375H6.66667H14.0625H14.1625V3.4375V2.60417ZM0.9375 2.50417H0.8375V2.60417V3.4375V3.5375H0.9375H3.2428C3.26076 3.90199 3.31527 4.2965 3.48831 4.61036C3.58366 4.7833 3.71575 4.93326 3.89783 5.03937C4.07977 5.14539 4.30565 5.20417 4.58333 5.20417C4.91324 5.20417 5.16958 5.12112 5.3656 4.9756C5.56092 4.83059 5.68788 4.62984 5.77073 4.40867C5.93335 3.97452 5.93334 3.43892 5.93333 3.02969V3.02083V3.01198C5.93334 2.60275 5.93335 2.06715 5.77073 1.633C5.68788 1.41182 5.56092 1.21108 5.3656 1.06607C5.16958 0.920544 4.91324 0.8375 4.58333 0.8375C4.30565 0.8375 4.07977 0.896273 3.89783 1.0023C3.71575 1.10841 3.58366 1.25836 3.48831 1.4313C3.31527 1.74517 3.26076 2.13968 3.2428 2.50417H0.9375ZM10 9.17083C9.9278 9.17083 9.88385 9.16063 9.85295 9.14174C9.82413 9.1241 9.79363 9.09079 9.76647 9.01583C9.70906 8.85739 9.68333 8.56309 9.68333 8.02083C9.68333 7.47858 9.70906 7.18427 9.76647 7.02584C9.79363 6.95087 9.82413 6.91756 9.85295 6.89993C9.88385 6.88103 9.9278 6.87083 10 6.87083C10.0722 6.87083 10.1161 6.88103 10.147 6.89993C10.1759 6.91756 10.2064 6.95087 10.2335 7.02584C10.2909 7.18427 10.3167 7.47858 10.3167 8.02083C10.3167 8.56309 10.2909 8.85739 10.2335 9.01583C10.2064 9.09079 10.1759 9.1241 10.147 9.14174C10.1161 9.16063 10.0722 9.17083 10 9.17083ZM4.58333 1.87083C4.65553 1.87083 4.69948 1.88103 4.73038 1.89993C4.75921 1.91756 4.78971 1.95087 4.81687 2.02584C4.87427 2.18427 4.9 2.47858 4.9 3.02083C4.9 3.56309 4.87427 3.85739 4.81687 4.01583C4.78971 4.09079 4.75921 4.1241 4.73038 4.14174C4.69948 4.16063 4.65553 4.17083 4.58333 4.17083C4.51113 4.17083 4.46718 4.16063 4.43629 4.14174C4.40746 4.1241 4.37696 4.09079 4.3498 4.01583C4.29239 3.85739 4.26667 3.56309 4.26667 3.02083C4.26667 2.47858 4.29239 2.18427 4.3498 2.02584C4.37696 1.95087 4.40746 1.91756 4.43629 1.89993C4.46718 1.88103 4.51113 1.87083 4.58333 1.87083Z" fill="#4C4F57" stroke="#4C4F57" stroke-width="0.2"/>
</svg>
