<svg width="14" height="14" viewBox="0 0 14 14" fill="none" xmlns="http://www.w3.org/2000/svg">
<path d="M0.700042 6.3H6.29996V0.699957C6.29996 0.313641 6.6136 0 7.00004 0C7.38636 0 7.7 0.313641 7.7 0.699957V6.3H13.3C13.6864 6.3 14 6.61364 14 6.99996C14 7.3864 13.6864 7.70004 13.3 7.70004H7.7V13.3C7.7 13.6864 7.38636 14 7.00004 14C6.6136 14 6.29996 13.6864 6.29996 13.3V7.70004H0.700042C0.313598 7.70004 -4.3869e-05 7.3864 -4.3869e-05 6.99996C-4.3869e-05 6.61364 0.313598 6.3 0.700042 6.3Z" fill="#4C4F57"/>
</svg>
