<svg width="16" height="16" viewBox="0 0 16 16" fill="none" xmlns="http://www.w3.org/2000/svg">
<path d="M8.00006 0.95H8C6.60564 0.95 5.2426 1.36348 4.08323 2.13814C2.92387 2.9128 2.02025 4.01386 1.48665 5.30208C0.953055 6.5903 0.813441 8.00782 1.08547 9.37538C1.35749 10.743 2.02894 11.9991 3.0149 12.9851C4.00086 13.9711 5.25705 14.6425 6.62462 14.9145C7.99218 15.1866 9.4097 15.0469 10.6979 14.5133C11.9861 13.9798 13.0872 13.0761 13.8619 11.9168C14.6365 10.7574 15.05 9.39436 15.05 8V7.99994C15.0478 6.13085 14.3044 4.33893 12.9827 3.01728C11.6611 1.69564 9.86915 0.952177 8.00006 0.95ZM10.8445 5.37937L10.806 5.34736L10.774 5.38577L7.01681 9.89444H7.01505L5.19919 8.07859L5.16384 8.04323L5.12848 8.07859L4.57859 8.62848L4.54324 8.66383L4.57859 8.69919L6.63698 10.7576L6.65163 10.7722H6.67234H7.40422H7.42764L7.44264 10.7542L11.4482 5.94756L11.4802 5.90915L11.4418 5.87714L10.8445 5.37937ZM7.99994 14.1722C6.77921 14.1722 5.5859 13.8102 4.5709 13.132C3.55588 12.4538 2.76477 11.4898 2.29761 10.362C1.83045 9.23418 1.70822 7.99315 1.94638 6.79586C2.18454 5.59856 2.77238 4.49878 3.63558 3.63558C4.49878 2.77238 5.59857 2.18453 6.79586 1.94638C7.99316 1.70822 9.23418 1.83045 10.362 2.29761C11.4898 2.76477 12.4538 3.55588 13.132 4.5709C13.8102 5.5859 14.1722 6.77921 14.1722 7.99994C14.1703 9.63633 13.5194 11.2052 12.3623 12.3623C11.2052 13.5194 9.63634 14.1703 7.99994 14.1722Z" fill="#6B7990" stroke="#6B7990" stroke-width="0.1"/>
</svg>
