<svg width="22" height="22" viewBox="0 0 22 22" fill="none" xmlns="http://www.w3.org/2000/svg">
<path d="M11.0001 0.9H11C9.00241 0.9 7.04968 1.49235 5.38874 2.60216C3.72781 3.71196 2.43327 5.28936 1.66882 7.13489C0.904376 8.98043 0.704363 11.0112 1.09407 12.9704C1.48378 14.9296 2.44572 16.7293 3.85823 18.1418C5.27074 19.5543 7.07038 20.5162 9.02959 20.9059C10.9888 21.2956 13.0196 21.0956 14.8651 20.3312C16.7106 19.5667 18.288 18.2722 19.3978 16.6113C20.5076 14.9503 21.1 12.9976 21.1 11V10.9999C21.0969 8.32217 20.0318 5.75501 18.1384 3.86158C16.245 1.96815 13.6778 0.903074 11.0001 0.9ZM11 19.8995C9.64696 19.8995 8.31242 19.5875 7.1 18.9881V16.5C7.1 15.8641 7.25239 15.3694 7.49914 14.9838C7.74617 14.5978 8.0915 14.3152 8.48596 14.1097C9.2778 13.6972 10.2584 13.6 11 13.6C11.7416 13.6 12.7222 13.6972 13.514 14.1097C13.9085 14.3152 14.2538 14.5978 14.5009 14.9838C14.7476 15.3694 14.9 15.8641 14.9 16.5V18.9881C13.6876 19.5875 12.353 19.8995 11 19.8995ZM16.1 18.2885V16.5C16.1 15.2205 15.6213 14.1905 14.7366 13.4827C13.8548 12.7772 12.58 12.4 11 12.4C9.41999 12.4 8.14525 12.7772 7.26341 13.4827C6.37871 14.1905 5.9 15.2205 5.9 16.5V18.2885C4.38926 17.2322 3.2424 15.7317 2.6203 13.9931C1.97703 12.1954 1.92897 10.2384 2.48321 8.41122C3.03746 6.58406 4.16463 4.98358 5.69825 3.84616C7.23187 2.70874 9.09063 2.09468 11 2.09468C12.9094 2.09468 14.7681 2.70874 16.3018 3.84616C17.8354 4.98358 18.9625 6.58406 19.5168 8.41122C20.071 10.2384 20.023 12.1954 19.3797 13.9931C18.7576 15.7317 17.6107 17.2322 16.1 18.2885ZM11 5.4C10.1445 5.4 9.49096 5.79494 9.05424 6.38133C8.61943 6.96515 8.4 7.7371 8.4 8.5C8.4 9.26289 8.61943 10.0348 9.05424 10.6187C9.49096 11.2051 10.1445 11.6 11 11.6C11.8555 11.6 12.509 11.2051 12.9458 10.6187C13.3806 10.0348 13.6 9.26289 13.6 8.5C13.6 7.7371 13.3806 6.96515 12.9458 6.38133C12.509 5.79494 11.8555 5.4 11 5.4ZM11 10.4C10.4525 10.4 10.1068 10.1017 9.89276 9.71124C9.67636 9.31647 9.6 8.83427 9.6 8.5C9.6 8.16573 9.67636 7.68353 9.89276 7.28875C10.1068 6.89826 10.4525 6.6 11 6.6C11.5476 6.6 11.8932 6.89826 12.1072 7.28875C12.3236 7.68353 12.4 8.16573 12.4 8.5C12.4 8.83427 12.3236 9.31647 12.1072 9.71124C11.8932 10.1017 11.5476 10.4 11 10.4Z" fill="#4C4F57" stroke="#4C4F57" stroke-width="0.2"/>
</svg>
