<svg width="16" height="20" viewBox="0 0 16 20" fill="none" xmlns="http://www.w3.org/2000/svg">
<path d="M15.4785 6.5H12V4C12 1.7195 10.2805 0 7.99998 0C5.71948 0 3.99998 1.7195 3.99998 4V6.5H0.519483L0.0419829 18.44C0.0259829 18.8455 0.177483 19.246 0.458983 19.539C0.739983 19.832 1.13498 20 1.54098 20H14.5C15.327 20 16 19.327 15.9995 18.4785L15.4785 6.5ZM4.99998 4C4.99998 2.29 6.28948 1 7.99998 1C9.71048 1 11 2.29 11 4V6.5H4.99998V4ZM14.5 19H1.54098C1.40548 19 1.27398 18.944 1.18048 18.8465C1.08648 18.7485 1.03548 18.615 1.04098 18.48L1.48048 7.5H3.99998V9.5H4.99998V7.5H11V9.5H12V7.5H14.5215L15 18.5C15 18.7755 14.776 19 14.5 19Z" fill="#393D46"/>
</svg>
