<svg width="20" height="20" viewBox="0 0 20 20" fill="none" xmlns="http://www.w3.org/2000/svg">
<path d="M10 0C8.02219 0 6.08879 0.58649 4.4443 1.6853C2.79981 2.78412 1.51809 4.3459 0.761209 6.17316C0.00433279 8.00042 -0.1937 10.0111 0.192152 11.9509C0.578004 13.8907 1.53041 15.6725 2.92894 17.0711C4.32746 18.4696 6.10929 19.422 8.0491 19.8078C9.98891 20.1937 11.9996 19.9957 13.8268 19.2388C15.6541 18.4819 17.2159 17.2002 18.3147 15.5557C19.4135 13.9112 20 11.9778 20 10C19.9969 7.34878 18.9424 4.80704 17.0677 2.93234C15.193 1.05765 12.6512 0.00308769 10 0ZM18.2344 6.66667H15.1911C14.7593 4.64123 13.7103 2.79947 12.1883 1.395C13.5379 1.74027 14.7878 2.39697 15.8378 3.31245C16.8877 4.22793 17.7086 5.37671 18.2344 6.66667ZM18.8889 10C18.886 10.7502 18.7876 11.4969 18.5961 12.2222H15.3994C15.6076 10.748 15.6076 9.25195 15.3994 7.77778H18.5961C18.7876 8.50309 18.886 9.24983 18.8889 10ZM1.11112 10C1.11398 9.24983 1.21237 8.50309 1.40389 7.77778H4.60056C4.39241 9.25195 4.39241 10.748 4.60056 12.2222H1.40389C1.21237 11.4969 1.11398 10.7502 1.11112 10ZM5.55556 10C5.5541 9.25585 5.61187 8.51276 5.72834 7.77778H9.44445V12.2222H5.72834C5.61187 11.4872 5.5541 10.7441 5.55556 10ZM14.0372 6.66667H10.5556V1.52722C12.3132 2.74944 13.554 4.5811 14.0372 6.66667ZM9.44445 1.52722V6.66667H5.96278C6.44598 4.5811 7.68682 2.74944 9.44445 1.52722ZM9.44445 13.3333V18.4728C7.68682 17.2506 6.44598 15.4189 5.96278 13.3333H9.44445ZM10.5556 18.4728V13.3333H14.0372C13.554 15.4189 12.3132 17.2506 10.5556 18.4728ZM10.5556 12.2222V7.77778H14.2717C14.502 9.2503 14.502 10.7497 14.2717 12.2222H10.5556ZM7.81167 1.395C6.28974 2.79947 5.24066 4.64123 4.80889 6.66667H1.76556C2.29144 5.37671 3.11228 4.22793 4.16225 3.31245C5.21222 2.39697 6.4621 1.74027 7.81167 1.395ZM1.76556 13.3333H4.80889C5.2399 15.3584 6.28799 17.2001 7.80889 18.605C6.45983 18.2593 5.21051 17.6025 4.16104 16.687C3.11158 15.7715 2.29117 14.623 1.76556 13.3333ZM12.1883 18.605C13.7103 17.2005 14.7593 15.3588 15.1911 13.3333H18.2344C17.7086 14.6233 16.8877 15.7721 15.8378 16.6875C14.7878 17.603 13.5379 18.2597 12.1883 18.605Z" fill="white"/>
</svg>
