<svg width="20" height="20" viewBox="0 0 20 20" fill="none" xmlns="http://www.w3.org/2000/svg">
<path d="M16.556 2.34783H15.7391H14.9223H10.4783V0.434784H9.52174V2.34783H5.07774H4.26087H3.444L0.462045 10.7973L0.434784 10.8747V10.9565V11.4348C0.434784 13.0518 1.97239 14.7826 4.26087 14.7826C6.54935 14.7826 8.08696 13.0518 8.08696 11.4348V10.9565V10.8747L5.41539 3.30435H9.52174V16.6957H5.43978L4.26087 18.4638V19.5652H15.7391V18.4638L14.5602 16.6957H10.4783V3.30435H14.5846L11.9403 10.7973L11.913 10.8747V10.9565V11.4348C11.913 13.0518 13.4507 14.7826 15.7391 14.7826C18.0276 14.7826 19.5652 13.0518 19.5652 11.4348V10.9565V10.8747L16.556 2.34783ZM4.26087 13.8261C2.80648 13.8261 1.73087 12.894 1.45874 11.913H7.06348C6.79087 12.894 5.71526 13.8261 4.26087 13.8261ZM7.10174 10.9565H1.42L4.12074 3.30435H4.26087H4.401L7.10174 10.9565ZM14.686 18.6087H5.314L5.95152 17.6522H14.0485L14.686 18.6087ZM15.7391 13.8261C14.2847 13.8261 13.2091 12.894 12.937 11.913H18.5417C18.2691 12.894 17.1935 13.8261 15.7391 13.8261ZM12.8983 10.9565L15.599 3.30435H15.7391H15.8793L18.58 10.9565H12.8983Z" fill="#393D46"/>
</svg>
