<svg width="20" height="20" viewBox="0 0 20 20" fill="none" xmlns="http://www.w3.org/2000/svg">
<path d="M18.9677 13.6517L13.6129 11.8652L11.8484 13.6258C9.72447 12.1271 7.87296 10.2756 6.37419 8.15165L8.13484 6.39101L6.34839 1.0323C6.2537 0.753192 6.06693 0.51457 5.81875 0.355601C5.57057 0.196632 5.27571 0.126762 4.98258 0.15746L1.16968 0.580685L0.343872 1.40778L0.366453 1.70391C0.386453 1.95488 0.905163 7.93617 6.48452 13.5142C12.0639 19.0923 18.0439 19.6129 18.2948 19.6336L18.591 19.6562L19.4181 18.8304L19.8413 15.0187C19.8729 14.7255 19.8035 14.4303 19.6447 14.1817C19.4859 13.9332 19.2471 13.7462 18.9677 13.6517ZM18.1871 18.2381L18.1116 18.3123C14.0298 17.5808 10.2816 15.5835 7.39806 12.6033C4.42303 9.71566 2.42685 5.96898 1.68968 1.88907L1.76323 1.81423L5.12581 1.44133L6.65936 6.04197L4.78839 7.91294L4.99613 8.32843C5.97355 10.2833 9.71677 14.0265 11.6716 15.0039L12.0871 15.2116L13.9581 13.3407L18.5587 14.8742L18.1871 18.2381Z" fill="white"/>
</svg>
