<svg width="20" height="18" viewBox="0 0 20 18" fill="none" xmlns="http://www.w3.org/2000/svg">
<path d="M18.9779 2.79366C18.6166 1.9635 18.0369 1.25933 17.3072 0.764302C16.5774 0.269272 15.7281 0.00406474 14.8595 0C12.7009 0 11.217 1.40808 9.96661 3.05017C8.79239 1.55759 7.08625 0 5.07988 0C4.21139 0.00379392 3.36207 0.268779 2.63229 0.763645C1.90251 1.25851 1.32276 1.96258 0.96154 2.79266C-0.123237 5.19279 0.520017 8.19995 2.7262 11.0431C4.73228 13.4624 6.88558 15.7423 9.17254 17.8685L9.30861 18H10.6303L10.7664 17.8685C13.0536 15.7424 15.2071 13.4624 17.2132 11.0431C19.4184 8.20045 20.0617 5.19379 18.9779 2.79366ZM16.4757 10.4121C14.5404 12.7461 12.4643 14.947 10.2602 17.0009H9.67877C7.47475 14.947 5.39876 12.7462 3.46366 10.4121C1.5006 7.87944 0.900164 5.25879 1.8208 3.22168C2.10566 2.5631 2.5639 2.00396 3.14141 1.61029C3.71891 1.21662 4.39155 1.00487 5.07988 1.00006C6.92591 1.00006 8.55307 2.71965 9.59027 4.16273L9.9709 4.68926L10.3515 4.16273C11.7156 2.26413 13.0059 1.00006 14.8591 1.00006C15.5475 1.00508 16.2201 1.21703 16.7976 1.61087C17.3751 2.00471 17.8333 2.56399 18.1181 3.22268C19.0383 5.25979 18.4383 7.88044 16.4757 10.4121Z" fill="#393D46"/>
</svg>
