<svg width="20" height="20" viewBox="0 0 20 20" fill="none" xmlns="http://www.w3.org/2000/svg">
<path d="M19.8326 19.0246L13.6354 12.8268C14.8889 11.3643 15.5272 9.47299 15.4163 7.54993C15.3053 5.62687 14.4539 3.82153 13.0405 2.51277C11.6271 1.20401 9.76175 0.493588 7.83585 0.530581C5.90995 0.567574 4.07325 1.34911 2.71118 2.71118C1.34911 4.07325 0.567574 5.90995 0.530581 7.83585C0.493588 9.76175 1.20401 11.6271 2.51277 13.0405C3.82153 14.4539 5.62687 15.3053 7.54993 15.4163C9.47299 15.5272 11.3643 14.8889 12.8268 13.6354L19.0246 19.8326L19.8326 19.0246ZM7.99999 14.2857C6.75679 14.2857 5.54151 13.917 4.50783 13.2264C3.47415 12.5357 2.66849 11.554 2.19274 10.4054C1.71699 9.25686 1.59251 7.99301 1.83505 6.7737C2.07758 5.55439 2.67624 4.43439 3.55531 3.55531C4.43439 2.67624 5.55439 2.07758 6.7737 1.83505C7.99301 1.59251 9.25686 1.71699 10.4054 2.19274C11.554 2.66849 12.5357 3.47415 13.2264 4.50783C13.917 5.54151 14.2857 6.75679 14.2857 7.99999C14.2837 9.66646 13.6209 11.2641 12.4425 12.4425C11.2641 13.6209 9.66646 14.2837 7.99999 14.2857Z" fill="#393D46"/>
</svg>
